<?xml version="1.0" encoding="UTF-8"?>
<svg version="1.1" xmlns="http://www.w3.org/2000/svg" width="256" height="256">
<path d="M0 0 C8.683143 6.24568485 16.96561216 14.75792703 19.9140625 25.25390625 C20.68288377 28.12948337 20.68288377 28.12948337 22.953125 28.8828125 C23.71109375 28.96273437 24.4690625 29.04265625 25.25 29.125 C32.86350632 30.37770152 38.18918118 35.16411567 43 41 C48.01605137 48.25194524 47.89952575 56.47768905 47 65 C45.33566819 71.76565651 41.13334184 77.35976243 36 82 C35.34 82 34.68 82 34 82 C34.33 86.62 34.66 91.24 35 96 C40.08115251 93.55132186 40.08115251 93.55132186 44.25 90.375 C47.58304499 87.49646114 48.90489665 86.77502749 53.1875 87.0625 C58.37476808 87.70672523 61.75280644 89.93426181 65 94 C67.8758432 99.84786845 68.07926988 106.26047571 66.27734375 112.50390625 C61.92312408 122.9223023 53.86695691 129.65499154 43.81640625 134.55078125 C30.72574373 139.87819373 17.81352393 141.48509677 4.0625 138.25 C3.27907227 138.07315674 2.49564453 137.89631348 1.68847656 137.71411133 C-2.63697748 136.69728008 -6.66425617 135.46687554 -10.75 133.6875 C-14.66660109 132.00229579 -16.82114875 131.60704958 -21 133 C-22.56416863 133.64178145 -24.12648053 134.2880963 -25.6875 134.9375 C-40.28549376 140.92028433 -58.51816052 141.14602154 -73.17089844 135.10498047 C-78.98891509 132.45358708 -84.67612667 129.54924889 -90 126 C-92.34221495 126.26378906 -94.67543145 126.61020954 -97 127 C-115.26457217 128.4053081 -132.97009073 124.90850782 -147.3125 112.8125 C-159.25891307 101.38382875 -164.86639798 86.39948516 -165.28540039 70.13012695 C-165.45480135 54.47045791 -162.228124 41.78187274 -151.36328125 30.078125 C-140.35336515 20.39667812 -126.97603289 19.44286885 -113 20 C-109.6533047 20.24743737 -106.32811468 20.57056585 -103 21 C-102.75507812 20.45085937 -102.51015625 19.90171875 -102.2578125 19.3359375 C-97.99196031 11.41364058 -91.52934612 4.82105024 -84 0 C-82.89591797 -0.75023437 -82.89591797 -0.75023437 -81.76953125 -1.515625 C-56.99545357 -17.51976001 -24.43320745 -15.62395579 0 0 Z M-94.29296875 18.56640625 C-96.56554167 21.80625277 -96.30316628 24.13462996 -96 28 C-99.86626018 29.00158552 -102.60900364 28.88025061 -106.5 28.0625 C-118.92102174 25.84011131 -131.82256202 25.90448204 -142.875 32.6875 C-150.9063455 38.5984541 -155.10911917 46.73701403 -157.58984375 56.265625 C-160.09196212 72.94641414 -157.18512418 88.34799365 -147.44140625 102.21875 C-138.86217949 112.91706635 -126.26391086 118.13839848 -113 120 C-107.94476347 120.36434137 -102.96685255 120.01364338 -98 119 C-97.67 118.34 -97.34 117.68 -97 117 C-97.74647802 114.93328047 -98.57275101 112.89509114 -99.4375 110.875 C-101.58328737 105.53424193 -102.5590511 101.70232126 -102 96 C-100.68 96 -99.36 96 -98 96 C-97.78085938 96.83402344 -97.56171875 97.66804688 -97.3359375 98.52734375 C-93.66995056 111.53712667 -88.71152512 118.96351148 -77 126 C-73.73618994 127.64164775 -70.48475968 128.9110126 -67 130 C-66.319375 130.22429687 -65.63875 130.44859375 -64.9375 130.6796875 C-54.60213232 133.53757326 -43.42003472 132.70237132 -33.125 130.1875 C-32.44107178 130.02233887 -31.75714355 129.85717773 -31.05249023 129.68701172 C-27.34064302 128.6834015 -26.20699697 128.31049545 -24 125 C-24.50789062 124.59910156 -25.01578125 124.19820312 -25.5390625 123.78515625 C-30.62586583 119.58425687 -35.18976104 115.06729415 -38 109 C-37.505 107.515 -37.505 107.515 -37 106 C-34.13021217 106.3413404 -33.14969169 106.8293907 -31.2109375 109.0390625 C-30.30214844 110.31910156 -30.30214844 110.31910156 -29.375 111.625 C-19.82248385 124.02558115 -5.46282282 129.74837409 9.5 132.6875 C25.65542107 134.12994831 39.71140486 131.01104675 52.4375 120.5625 C56.94039224 116.3825611 60.68264385 111.34712291 61 105 C60.2755473 100.87061963 59.54888474 98.59338891 56.6875 95.5 C54.154435 93.76073586 54.154435 93.76073586 51.5546875 94.19140625 C48.61693878 95.12124415 47.51525466 96.20170583 45.4375 98.4375 C40.50486521 102.94282556 35.58275216 103.92325807 29 104 C20.43794224 103.20205675 14.53991577 98.30934852 9 92 C7.83749389 90.00240247 6.93905292 88.02860559 6.05078125 85.8984375 C4.34889859 82.82366065 1.66296399 80.98843713 -1.03125 78.796875 C-8.11249327 72.3338355 -9.15300908 64.98881739 -9.71875 55.8359375 C-9.68740332 53.10130637 -9.68740332 53.10130637 -11 52 C-12.87321948 51.83946185 -12.87321948 51.83946185 -15 51.875 C-15.721875 51.87242188 -16.44375 51.86984375 -17.1875 51.8671875 C-19.02089415 51.80304724 -19.02089415 51.80304724 -20 53 C-20.13382784 55.16503701 -20.23144455 57.3323457 -20.3125 59.5 C-20.91723139 68.65470282 -23.33456282 75.48268365 -30 82 C-38.56575023 87.66444773 -45.75878817 88.82685678 -56 88 C-63.94845576 86.15462426 -70.45853167 81.78519828 -75.3125 75.2265625 C-78.71139222 69.30349297 -79.16541812 62.67665506 -80 56 C-87.59 55.67 -95.18 55.34 -103 55 C-103.33 53.35 -103.66 51.7 -104 50 C-103.3294458 49.99589111 -102.6588916 49.99178223 -101.96801758 49.98754883 C-98.91529609 49.95455357 -95.8645547 49.8839038 -92.8125 49.8125 C-91.75740234 49.80669922 -90.70230469 49.80089844 -89.61523438 49.79492188 C-83.28472423 49.66473919 -83.28472423 49.66473919 -77.87109375 46.6328125 C-75.94539327 43.99795905 -75.94539327 43.99795905 -74.25 41.0625 C-69.98333255 35.25509152 -63.9013175 31.86591177 -57 30 C-47.50106694 28.99733484 -39.99764356 29.62682588 -32 35 C-31.071875 35.61875 -30.14375 36.2375 -29.1875 36.875 C-27 39 -27 39 -26.0859375 40.83984375 C-24.89721095 43.1310915 -24.08675866 44.45033956 -22 46 C-17.12150643 46.64892076 -12.75043295 46.26328915 -8 45 C-5.28713581 42.38961127 -5.28713581 42.38961127 -4 39 C1.31115892 33.29050416 5.71903568 30.54833751 13 28 C11.57152773 22.28611091 8.70890117 18.43511959 5 14 C4.51917969 13.41089844 4.03835937 12.82179688 3.54296875 12.21484375 C-5.35965153 2.32053918 -19.60419861 -4.16744386 -32.73144531 -5.21875 C-57.6241328 -6.51735776 -77.22631019 -0.53545861 -94.29296875 18.56640625 Z M0 43.375 C-3.76426515 49.52019611 -5.08519449 56.15901518 -3.5 63.23046875 C-1.55586313 69.82506939 1.49597323 74.74730382 7.5 78.375 C13.64214137 81.13198391 21.05787948 81.3909596 27.40234375 79.15234375 C32.75583812 76.12109454 37.66617903 70.99332987 39.640625 65.08203125 C40.97985994 57.32320272 40.58849665 50.54009749 36 44 C31.45400681 38.75462324 26.86972489 35.66319211 19.9921875 34.7265625 C12.1761661 34.3516242 4.86783315 37.03249975 0 43.375 Z M-67.52734375 42.21484375 C-72.2359754 47.92265452 -73.70205918 53.97892586 -73.375 61.296875 C-72.31115718 68.96540865 -68.94139044 73.6755305 -63.09765625 78.58984375 C-56.80305674 82.82140878 -50.35855778 82.69571819 -43 82 C-36.35837268 80.27688487 -31.7211903 75.61262405 -28 70 C-25.0114419 63.63973533 -25.57935334 56.35459085 -27.71875 49.796875 C-30.3860974 43.77234898 -34.65758082 39.84712639 -40.375 36.6875 C-50.34073722 34.07742597 -59.76466027 34.74578423 -67.52734375 42.21484375 Z M15 87 C16.14798774 91.59195094 16.73528573 91.87820524 20.5625 94.25 C21.38878906 94.77078125 22.21507812 95.2915625 23.06640625 95.828125 C24.02353516 96.40820312 24.02353516 96.40820312 25 97 C25.66 96.67 26.32 96.34 27 96 C27 93.03 27 90.06 27 87 C23.04 87 19.08 87 15 87 Z " fill="#000000" transform="translate(178,64)"/>
<path d="M0 0 C1.051875 -0.02126953 1.051875 -0.02126953 2.125 -0.04296875 C4 0.1875 4 0.1875 6 2.1875 C4.02 2.8475 2.04 3.5075 0 4.1875 C0 6.1675 0 8.1475 0 10.1875 C2.31 10.1875 4.62 10.1875 7 10.1875 C7 7.5475 7 4.9075 7 2.1875 C10.15617637 5.20645131 11.17090274 7.05543735 11.3125 11.4375 C11.2671928 17.06465444 8.91655989 20.27094011 5 24.1875 C0.76026507 24.82887444 -2.99291244 24.6160479 -6.9375 22.9375 C-9.74388138 20.55632792 -10.80092749 18.45737309 -11.37109375 14.8203125 C-11.489301 10.3562503 -11.54314445 7.18014353 -8.625 3.625 C-5.49884633 0.72214302 -4.13070933 0.03796608 0 0 Z " fill="#000000" transform="translate(197,111.8125)"/>
<path d="M0 0 C-1.98 0.99 -1.98 0.99 -4 2 C-4.04254356 3.99954746 -4.04080783 6.00041636 -4 8 C-2.93354885 9.29633621 -2.93354885 9.29633621 -0.4375 9.0625 C0.366875 9.041875 1.17125 9.02125 2 9 C2.33 7.02 2.66 5.04 3 3 C5.52377347 4.86539778 6.02967981 6.10811932 6.875 9.1875 C7.0512753 14.56389672 5.91550496 18.95239125 2.1875 22.9375 C-1.9343583 24.93954546 -4.7384802 25.42891673 -9.125 23.9375 C-12.97620488 21.3421228 -15.46504192 18.73483673 -16.3828125 14.04296875 C-16.67406952 8.96538801 -15.36535765 5.92625059 -12 2 C-8.43030146 -0.80476313 -4.34004512 -0.14466817 0 0 Z " fill="#000000" transform="translate(136,113)"/>
</svg>
