<svg xmlns="http://www.w3.org/2000/svg" width="256" height="256" viewBox="0 0 256 256" version="1.1"><path d="M 125.539 52.059 C 106.281 55.037, 89.370 64.736, 79.074 78.708 L 74.500 84.915 64 84.346 C 42.654 83.188, 29.210 88.829, 20.359 102.656 C 10.618 117.874, 10.559 144.129, 20.225 162.275 C 27.444 175.826, 39.433 184.891, 55.609 189.028 C 64.190 191.222, 78.759 191.677, 83.831 189.909 C 86.690 188.913, 87.505 189.175, 93.231 192.931 C 106.162 201.416, 126.705 205.066, 142.071 201.609 C 146.157 200.690, 152.144 198.854, 155.376 197.529 L 161.252 195.121 168.754 198.101 C 172.881 199.740, 180.697 201.839, 186.123 202.765 C 195.247 204.322, 196.696 204.328, 205.374 202.852 C 228.393 198.936, 245 184.649, 245 168.764 C 245 160.788, 242.388 155.850, 236.718 153.105 C 229.935 149.822, 226.867 150.289, 221 155.500 C 218.213 157.975, 215.048 160, 213.967 160 C 212.219 160, 212 159.298, 212 153.696 C 212 147.771, 212.215 147.185, 215.585 143.946 C 222.186 137.601, 224.351 132.681, 224.816 122.974 C 225.287 113.115, 223.716 108.163, 218.082 101.746 C 214.894 98.116, 204.191 92, 201.024 92 C 199.972 92, 198.298 89.720, 196.434 85.750 C 192.190 76.710, 180.927 65.699, 170.287 60.190 C 156.640 53.124, 139.175 49.950, 125.539 52.059 M 118.373 60.979 C 105.556 64.339, 93.051 72.316, 85.355 82.041 C 82.869 85.183, 82.215 86.827, 82.629 88.893 C 83.540 93.451, 81.175 94.525, 73.736 92.930 C 64.897 91.033, 50.720 91.199, 43.864 93.279 C 37.322 95.264, 29.335 101.866, 25.446 108.502 C 22.543 113.455, 20.042 124.185, 20.017 131.792 C 20.008 134.703, 20.713 140.553, 21.584 144.792 C 26.423 168.335, 44.863 183, 69.628 183 C 81.331 183, 81.347 182.988, 78.197 176.177 C 74.829 168.896, 74.420 159.766, 77.434 159.167 C 79.811 158.694, 82 161.488, 82 164.995 C 82 169.504, 86.915 177.764, 92.628 182.856 C 104.697 193.613, 121.255 197.978, 138.566 194.968 C 145.241 193.808, 153 191.202, 153 190.120 C 153 189.727, 151.158 187.627, 148.908 185.453 C 142.806 179.559, 138.760 173.331, 139.506 170.981 C 140.567 167.638, 144.394 168.518, 147.350 172.783 C 155.854 185.055, 170.474 193.272, 188.750 196.051 C 211.410 199.498, 238 184.873, 238 168.963 C 238 159.438, 230.548 155.662, 224.437 162.089 C 222.822 163.788, 220.375 165.755, 219 166.459 C 215.332 168.339, 208.052 169.106, 203.667 168.075 C 197.669 166.664, 189.618 160.752, 186.376 155.379 C 184.794 152.756, 180.911 148.032, 177.747 144.882 C 169.758 136.926, 167.636 131.357, 167.031 116.750 C 166.991 115.787, 160.852 115.799, 159.383 116.765 C 158.768 117.169, 158.055 121.100, 157.798 125.500 C 157.234 135.175, 154.981 140.086, 148.486 145.803 C 142.869 150.748, 136.614 153, 128.500 153 C 120.141 153, 113.971 150.679, 107.956 145.271 C 101.702 139.648, 99.056 134.609, 98.178 126.649 L 97.500 120.500 86 120 L 74.500 119.500 74.500 116.500 L 74.500 113.500 84.500 113.252 C 90 113.115, 95.503 112.772, 96.728 112.488 C 98.022 112.189, 100.418 109.687, 102.445 106.519 C 112.695 90.495, 135.415 87.917, 149.185 101.215 C 151.056 103.022, 153.467 105.644, 154.543 107.042 C 156.350 109.389, 156.998 109.554, 163 109.202 C 169.455 108.823, 169.518 108.791, 172.173 104.473 C 175.317 99.357, 181.749 94.414, 187.154 92.959 C 189.269 92.389, 191 91.560, 191 91.116 C 191 88.969, 182.742 77.930, 178.095 73.864 C 171.628 68.207, 160.608 62.589, 152 60.561 C 143.008 58.442, 127.303 58.638, 118.373 60.979 M 188.637 100.465 C 180.237 103.459, 174.651 111.875, 174.675 121.500 C 174.692 128.845, 176.599 133.544, 181.492 138.295 C 186.202 142.869, 190.640 144.339, 198.111 143.798 C 209.017 143.009, 216.652 134.932, 217.730 123.043 C 218.386 115.803, 215.787 109.685, 209.920 104.663 C 203.579 99.236, 196.179 97.776, 188.637 100.465 M 119 101.331 C 113.870 103.729, 110.843 106.412, 108.209 110.892 C 105.948 114.738, 105.505 116.657, 105.530 122.500 C 105.590 136.681, 114.699 146, 128.500 146 C 142.139 146, 150.931 136.987, 150.978 122.956 C 150.997 117.328, 150.545 115.654, 147.750 110.999 C 143.361 103.690, 136.497 99.964, 127.636 100.081 C 124.261 100.126, 120.375 100.688, 119 101.331 M 190.881 113.503 C 188.263 114.926, 185 120.406, 185 123.381 C 185 126.502, 188.217 132.912, 190.550 134.441 C 193.403 136.310, 201.004 136.497, 203.163 134.750 C 209.607 129.535, 209.543 116.502, 203.055 113.030 C 200.337 111.575, 193.974 111.822, 190.881 113.503 M 123.400 116.400 C 120.567 119.233, 120.002 120.526, 120.015 124.150 C 120.034 129.706, 121.650 132.844, 126.015 135.801 C 135.498 142.226, 146.408 130.578, 141.399 119.377 L 139.666 115.500 139.083 119 C 138.604 121.874, 138.020 122.555, 135.817 122.810 C 130.771 123.393, 129.532 116.498, 134.272 114.211 C 136.201 113.280, 135.848 113.126, 131.650 113.068 C 127.423 113.009, 126.363 113.437, 123.400 116.400 M 196.832 116.470 C 195.971 118.359, 196.005 119.301, 196.975 120.470 C 200.185 124.337, 206.359 120.408, 204 116 C 202.450 113.103, 198.240 113.380, 196.832 116.470 M 193.032 151.750 C 193.119 153.816, 200.318 160, 202.635 160 C 203.586 160, 204 158.636, 204 155.500 L 204 151 198.500 151 C 195.475 151, 193.014 151.338, 193.032 151.750" stroke="none" fill="#424242" fill-rule="evenodd"/></svg>
